<svg width="96" height="20" viewBox="0 0 96 20" fill="none" xmlns="http://www.w3.org/2000/svg">
    <path d="M1.66645 19.9453C1.12949 19.9453 0.712871 19.7994 0.416614 19.5075C0.138872 19.2157 0 18.7962 0 18.249V1.9699C0 1.40447 0.138872 0.975833 0.416614 0.683995C0.712871 0.373917 1.09245 0.218878 1.55536 0.218878C1.98123 0.218878 2.296 0.300956 2.49968 0.465115C2.72187 0.611034 2.9811 0.866393 3.27736 1.23119L13.9149 14.829H13.1927V1.88783C13.1927 1.35887 13.3316 0.948472 13.6094 0.656635C13.9056 0.364797 14.3222 0.218878 14.8592 0.218878C15.3962 0.218878 15.8035 0.364797 16.0813 0.656635C16.359 0.948472 16.4979 1.35887 16.4979 1.88783V18.3037C16.4979 18.8144 16.3683 19.2157 16.109 19.5075C15.8498 19.7994 15.498 19.9453 15.0536 19.9453C14.6277 19.9453 14.2852 19.8632 14.026 19.699C13.7853 19.5349 13.5168 19.2704 13.2205 18.9056L2.61077 5.3078H3.30513V18.249C3.30513 18.7962 3.16626 19.2157 2.88852 19.5075C2.61078 19.7994 2.20342 19.9453 1.66645 19.9453Z" fill="#FCFCFC"/>
    <path d="M25.3591 20C24.2297 20 23.2946 19.7994 22.5539 19.3981C21.8133 18.9786 21.2578 18.3584 20.8875 17.5376C20.5357 16.7168 20.3598 15.6954 20.3598 14.4733V7.85226C20.3598 7.26858 20.5079 6.83995 20.8042 6.56635C21.1004 6.27451 21.5263 6.12859 22.0818 6.12859C22.6373 6.12859 23.0631 6.27451 23.3594 6.56635C23.6742 6.83995 23.8316 7.26858 23.8316 7.85226V14.528C23.8316 15.4765 24.026 16.1788 24.4148 16.6347C24.8037 17.0907 25.4239 17.3187 26.2757 17.3187C27.2015 17.3187 27.9607 17.0087 28.5532 16.3885C29.1457 15.7501 29.4419 14.9111 29.4419 13.8714V7.85226C29.4419 7.26858 29.5901 6.83995 29.8863 6.56635C30.1826 6.27451 30.6085 6.12859 31.1639 6.12859C31.7194 6.12859 32.1453 6.27451 32.4416 6.56635C32.7563 6.83995 32.9137 7.26858 32.9137 7.85226V18.1943C32.9137 19.3616 32.349 19.9453 31.2195 19.9453C30.6825 19.9453 30.2659 19.7994 29.9697 19.5075C29.6734 19.1974 29.5253 18.7597 29.5253 18.1943V16.1149L29.9141 16.9357C29.5253 17.9207 28.9328 18.6776 28.1366 19.2066C27.3589 19.7355 26.4331 20 25.3591 20Z" fill="#FCFCFC"/>
    <path d="M42.7486 20C41.5451 20 40.5359 19.7994 39.7212 19.3981C38.925 18.9968 38.3325 18.4131 37.9437 17.6471C37.5548 16.8627 37.3604 15.896 37.3604 14.7469V8.91929H35.9162C35.4718 8.91929 35.1292 8.80985 34.8885 8.59097C34.6478 8.35385 34.5274 8.03466 34.5274 7.63338C34.5274 7.21386 34.6478 6.89466 34.8885 6.67579C35.1292 6.45691 35.4718 6.34747 35.9162 6.34747H37.3604V3.85773C37.3604 3.29229 37.5085 2.86366 37.8048 2.57182C38.1196 2.27998 38.5547 2.13406 39.1102 2.13406C39.6657 2.13406 40.0915 2.27998 40.3878 2.57182C40.6841 2.86366 40.8322 3.29229 40.8322 3.85773V6.34747H43.7762C44.2206 6.34747 44.5632 6.45691 44.8039 6.67579C45.0446 6.89466 45.165 7.21386 45.165 7.63338C45.165 8.03466 45.0446 8.35385 44.8039 8.59097C44.5632 8.80985 44.2206 8.91929 43.7762 8.91929H40.8322V14.5554C40.8322 15.4309 41.0266 16.0876 41.4154 16.5253C41.8043 16.9631 42.4338 17.1819 43.3041 17.1819C43.6189 17.1819 43.8966 17.1546 44.1373 17.0999C44.378 17.0451 44.591 17.0087 44.7761 16.9904C44.9983 16.9722 45.1835 17.0451 45.3316 17.2093C45.4797 17.3552 45.5538 17.6653 45.5538 18.1395C45.5538 18.5043 45.489 18.8327 45.3594 19.1245C45.2483 19.3981 45.0353 19.5896 44.7206 19.699C44.4799 19.772 44.1651 19.8358 43.7762 19.8906C43.3874 19.9635 43.0449 20 42.7486 20Z" fill="#FCFCFC"/>
    <path d="M48.9642 19.9453C48.3902 19.9453 47.9458 19.7994 47.631 19.5075C47.3347 19.1974 47.1866 18.7597 47.1866 18.1943V7.85226C47.1866 7.28682 47.3347 6.85819 47.631 6.56635C47.9273 6.27451 48.3439 6.12859 48.8808 6.12859C49.4178 6.12859 49.8344 6.27451 50.1307 6.56635C50.4269 6.85819 50.5751 7.28682 50.5751 7.85226V9.57592H50.2973C50.5565 8.48153 51.0657 7.65162 51.8249 7.08618C52.5841 6.52075 53.5932 6.18331 54.8523 6.07387C55.2411 6.03739 55.5466 6.13771 55.7688 6.37483C56.0095 6.59371 56.1484 6.94026 56.1855 7.4145C56.2225 7.8705 56.1114 8.24442 55.8522 8.53625C55.6114 8.80985 55.2411 8.97401 54.7412 9.02873L54.1302 9.08345C53.0007 9.19289 52.1489 9.53945 51.5749 10.1231C51.0009 10.6886 50.7139 11.4911 50.7139 12.5308V18.1943C50.7139 18.7597 50.5658 19.1974 50.2696 19.5075C49.9733 19.7994 49.5382 19.9453 48.9642 19.9453Z" fill="#FCFCFC"/>
    <path d="M59.785 19.9179C59.2295 19.9179 58.8037 19.7538 58.5074 19.4254C58.2112 19.0971 58.063 18.6411 58.063 18.0575V8.01642C58.063 7.4145 58.2112 6.95851 58.5074 6.64843C58.8037 6.32011 59.2295 6.15595 59.785 6.15595C60.3405 6.15595 60.7664 6.32011 61.0626 6.64843C61.3774 6.95851 61.5348 7.4145 61.5348 8.01642V18.0575C61.5348 18.6411 61.3867 19.0971 61.0904 19.4254C60.7942 19.7538 60.359 19.9179 59.785 19.9179ZM59.785 3.61149C59.137 3.61149 58.6278 3.45645 58.2574 3.14637C57.9056 2.81806 57.7297 2.37118 57.7297 1.80575C57.7297 1.22207 57.9056 0.775193 58.2574 0.465115C58.6278 0.155038 59.137 0 59.785 0C60.4516 0 60.9608 0.155038 61.3126 0.465115C61.6644 0.775193 61.8403 1.22207 61.8403 1.80575C61.8403 2.37118 61.6644 2.81806 61.3126 3.14637C60.9608 3.45645 60.4516 3.61149 59.785 3.61149Z" fill="#FCFCFC"/>
    <path d="M69.7805 20C68.2436 20 67.0864 19.5714 66.3087 18.7141C65.531 17.8386 65.1422 16.5618 65.1422 14.8837V1.94255C65.1422 1.37711 65.2903 0.948472 65.5866 0.656635C65.8828 0.364797 66.3087 0.218878 66.8642 0.218878C67.4197 0.218878 67.8456 0.364797 68.1418 0.656635C68.4566 0.948472 68.614 1.37711 68.614 1.94255V14.7196C68.614 15.5586 68.7899 16.1788 69.1417 16.58C69.512 16.9813 70.0304 17.1819 70.697 17.1819C70.8452 17.1819 70.984 17.1819 71.1136 17.1819C71.2433 17.1637 71.3729 17.1455 71.5025 17.1272C71.7617 17.0907 71.9376 17.1637 72.0302 17.3461C72.1228 17.5103 72.1691 17.8568 72.1691 18.3858C72.1691 18.8418 72.0765 19.1974 71.8913 19.4528C71.7062 19.7082 71.4006 19.8632 70.9748 19.9179C70.7896 19.9362 70.5952 19.9544 70.3915 19.9726C70.1878 19.9909 69.9842 20 69.7805 20Z" fill="#FCFCFC"/>
    <path d="M78.6498 20C77.1129 20 75.9557 19.5714 75.178 18.7141C74.4003 17.8386 74.0115 16.5618 74.0115 14.8837V1.94255C74.0115 1.37711 74.1596 0.948472 74.4559 0.656635C74.7521 0.364797 75.178 0.218878 75.7335 0.218878C76.289 0.218878 76.7148 0.364797 77.0111 0.656635C77.3259 0.948472 77.4833 1.37711 77.4833 1.94255V14.7196C77.4833 15.5586 77.6592 16.1788 78.011 16.58C78.3813 16.9813 78.8997 17.1819 79.5663 17.1819C79.7145 17.1819 79.8533 17.1819 79.9829 17.1819C80.1125 17.1637 80.2422 17.1455 80.3718 17.1272C80.631 17.0907 80.8069 17.1637 80.8995 17.3461C80.9921 17.5103 81.0384 17.8568 81.0384 18.3858C81.0384 18.8418 80.9458 19.1974 80.7606 19.4528C80.5755 19.7082 80.2699 19.8632 79.8441 19.9179C79.6589 19.9362 79.4645 19.9544 79.2608 19.9726C79.0571 19.9909 78.8535 20 78.6498 20Z" fill="#FCFCFC"/>
    <path d="M88.9388 20C87.5316 20 86.3095 19.7173 85.2726 19.1518C84.2357 18.5864 83.4303 17.7839 82.8563 16.7442C82.2823 15.6863 81.9953 14.446 81.9953 13.0233C81.9953 11.9471 82.1527 10.9895 82.4674 10.1505C82.8007 9.29321 83.2729 8.56361 83.8839 7.9617C84.4949 7.34154 85.2263 6.87643 86.0781 6.56635C86.9298 6.23803 87.8834 6.07387 88.9388 6.07387C90.346 6.07387 91.5681 6.35659 92.605 6.92203C93.6419 7.48746 94.4474 8.29001 95.0214 9.32969C95.5954 10.3694 95.8824 11.6005 95.8824 13.0233C95.8824 14.0994 95.7157 15.0661 95.3824 15.9234C95.0677 16.7807 94.6047 17.5194 93.9937 18.1395C93.3827 18.7415 92.6513 19.2066 91.7996 19.5349C90.9478 19.845 89.9942 20 88.9388 20ZM88.9388 17.4008C89.6239 17.4008 90.2257 17.2367 90.7441 16.9083C91.2626 16.58 91.6607 16.0967 91.9384 15.4583C92.2347 14.8016 92.3828 13.99 92.3828 13.0233C92.3828 11.5641 92.068 10.4788 91.4385 9.76744C90.8089 9.03785 89.9757 8.67305 88.9388 8.67305C88.2537 8.67305 87.6519 8.83721 87.1335 9.16553C86.615 9.47561 86.2077 9.95896 85.9114 10.6156C85.6337 11.254 85.4948 12.0565 85.4948 13.0233C85.4948 14.4642 85.8096 15.5586 86.4391 16.3064C87.0687 17.036 87.9019 17.4008 88.9388 17.4008Z" fill="#FCFCFC"/>
</svg>
